<svg width="24" height="24" viewBox="0 0 24 24" fill="none" xmlns="http://www.w3.org/2000/svg">
<path d="M14.0562 2.7998C12.7481 2.7998 11.6181 3.19858 10.825 3.98652C10.0318 4.77447 9.59999 5.92933 9.59999 7.34668V9.1998H7.19999C7.0939 9.19982 6.99217 9.24196 6.91716 9.31697C6.84214 9.39199 6.8 9.49372 6.79999 9.5998V12.7998C6.8 12.9059 6.84214 13.0076 6.91716 13.0826C6.99217 13.1576 7.0939 13.1998 7.19999 13.1998H9.59999V20.7998C9.6 20.9059 9.64214 21.0076 9.71716 21.0826C9.79217 21.1576 9.8939 21.1998 9.99999 21.1998H13.2C13.3061 21.1998 13.4078 21.1576 13.4828 21.0826C13.5578 21.0076 13.6 20.9059 13.6 20.7998V13.1998H16.4C16.4974 13.1998 16.5915 13.1642 16.6646 13.0998C16.7376 13.0354 16.7847 12.9465 16.7969 12.8498L17.1969 9.6498C17.2039 9.5935 17.199 9.53633 17.1823 9.4821C17.1656 9.42786 17.1375 9.3778 17.1 9.33524C17.0624 9.29268 17.0163 9.25859 16.9646 9.23524C16.9128 9.21189 16.8567 9.19981 16.8 9.1998H13.6V7.5998C13.6 7.15314 13.9533 6.7998 14.4 6.7998H16.8C16.9061 6.79979 17.0078 6.75765 17.0828 6.68264C17.1578 6.60762 17.2 6.50589 17.2 6.3998V3.33809C17.1999 3.24115 17.1645 3.14755 17.1006 3.0747C17.0367 3.00184 16.9484 2.95469 16.8523 2.94199C16.4989 2.89509 15.2229 2.7998 14.0562 2.7998ZM14.0562 3.5998C15.0314 3.5998 15.974 3.67782 16.4 3.71777V5.9998H14.4C13.5211 5.9998 12.8 6.72087 12.8 7.5998V9.5998C12.8 9.70589 12.8421 9.80762 12.9172 9.88264C12.9922 9.95765 13.0939 9.99979 13.2 9.9998H16.3469L16.0469 12.3998H13.2C13.0939 12.3998 12.9922 12.442 12.9172 12.517C12.8421 12.592 12.8 12.6937 12.8 12.7998V20.3998H10.4V12.7998C10.4 12.6937 10.3578 12.592 10.2828 12.517C10.2078 12.442 10.1061 12.3998 9.99999 12.3998H7.59999V9.9998H9.99999C10.1061 9.99979 10.2078 9.95765 10.2828 9.88264C10.3578 9.80762 10.4 9.70589 10.4 9.5998V7.34668C10.4 6.08882 10.7681 5.17057 11.3891 4.55371C12.01 3.93685 12.9079 3.5998 14.0562 3.5998Z" fill="black"/>
</svg>
